<svg width="66" height="36" viewBox="0 0 66 36" fill="none" xmlns="http://www.w3.org/2000/svg">
<path d="M3.5 22.8884C3.92656 22.8884 4.35312 22.8884 5.21268 24.1681C6.07224 25.4477 7.35187 28.007 9.96289 30.6438" stroke="#A04BE5" stroke-width="7" stroke-linecap="square"/>
<path d="M19.0108 3.5C18.1577 3.5 18.5714 5.63272 20.0772 9.93048C20.7299 12.0955 21.1565 14.2282 21.5895 16.3933C22.0225 18.5583 22.449 20.6911 22.8884 22.8884" stroke="#A04BE5" stroke-width="7" stroke-linecap="square"/>
<path d="M40.9844 7.37769C40.9844 7.80422 40.9844 8.23076 40.9844 9.51686C40.9844 10.803 40.9844 12.9357 40.5578 15.1007C40.1313 17.2658 39.2781 19.3985 37.1067 24.181" stroke="#A04BE5" stroke-width="7" stroke-linecap="square"/>
<path d="M61.6653 19.0107C62.0918 19.4373 62.5184 19.8638 61.6718 20.5101C60.8252 21.1564 58.6925 22.0095 56.7407 23.0888C54.7889 24.1681 53.0827 25.4477 50.0322 28.0587" stroke="#A04BE5" stroke-width="7" stroke-linecap="square"/>
</svg>
