<svg width="107" height="100" viewBox="0 0 107 100" fill="none" xmlns="http://www.w3.org/2000/svg">
<ellipse cx="53.5" cy="50" rx="53.5" ry="50" fill="#A04BE5" fill-opacity="0.5"/>
<path d="M48.9612 85.2273C48.8409 84.7463 48.4801 84.3855 47.9991 84.2652L45.9546 83.9044L51.9678 78.1318H52.4488C53.1704 79.3344 54.1325 80.2965 55.4554 80.8978L49.322 87.2718L48.9612 85.2273Z" fill="#FF9900"/>
<path d="M65.4374 78.1318L71.4505 83.9044L69.4061 84.2652C68.925 84.3855 68.5642 84.7463 68.4439 85.2273L68.0832 87.2718L61.9497 80.8978C63.1523 80.2965 64.2347 79.3344 64.9563 78.1318H65.4374Z" fill="#FF9900"/>
<path d="M58.7026 70.916C56.6582 70.916 55.0947 72.4794 55.0947 74.5239H57.5C57.5 73.9225 58.1013 73.3212 58.7026 73.3212V70.916ZM58.7026 78.1318C60.7471 78.1318 62.3105 76.5683 62.3105 74.5239H59.9053C59.9053 75.1252 59.304 75.7265 58.7026 75.7265V78.1318ZM58.7026 69.7133C61.3484 69.7133 63.5132 71.8781 63.5132 74.5239C63.5132 77.1697 61.3484 79.3344 58.7026 79.3344C56.0568 79.3344 53.8921 77.1697 53.8921 74.5239C53.8921 71.8781 56.0568 69.7133 58.7026 69.7133Z" fill="#FF9900"/>
<path d="M64.7158 28.8237H31.042V33.6343H64.7158V28.8237Z" fill="#2FB4C2"/>
<path d="M34.6499 20.4053C30.5609 20.4053 27.1936 23.2916 26.3517 27.14C26.2314 27.6211 26.2314 28.2224 26.2314 28.8237V45.6606V75.7265H51.0057L51.6071 75.1252C51.6071 74.8847 51.6071 74.6442 51.6071 74.5239C51.6071 70.5552 54.8542 67.3081 58.8229 67.3081C62.7916 67.3081 66.0387 70.5552 66.0387 74.5239C66.0387 74.7644 66.0387 75.0049 66.0387 75.1252L66.64 75.7265H69.5263V43.2554V34.8369V28.8237C69.5263 25.4563 71.0898 22.3295 73.6153 20.4053H34.6499ZM50.2842 45.6606H29.8394V43.2554H50.2842V45.6606ZM40.6631 50.4712V52.8764H29.8394V50.4712H40.6631ZM49.0815 60.0923H29.8394V57.687H49.0815V60.0923ZM65.9184 60.0923H52.6894V57.687H65.9184V60.0923ZM65.9184 52.8764H45.4736V50.4712H65.9184V52.8764ZM65.9184 45.6606H52.6894V43.2554H65.9184V45.6606ZM65.9184 36.0395H29.8394C29.238 36.0395 28.6367 35.4382 28.6367 34.8369V27.6211C28.6367 27.5008 28.6367 27.5008 28.6367 27.3806C28.757 26.7792 29.238 26.4185 29.8394 26.4185H65.9184C66.5197 26.4185 67.1211 27.0198 67.1211 27.6211V34.8369C67.1211 35.4382 66.5197 36.0395 65.9184 36.0395Z" fill="#FFF8EF"/>
<path d="M88.6484 27.6211H72.052C72.6533 23.5321 76.141 20.4053 80.3502 20.4053C84.5594 20.4053 88.0471 23.5321 88.6484 27.6211Z" fill="#CC9966"/>
<path d="M65.9184 57.687H52.6895V60.0923H65.9184V57.687Z" fill="#42210B"/>
<path d="M65.9184 50.4712H45.4736V52.8765H65.9184V50.4712Z" fill="#42210B"/>
<path d="M65.9184 43.2554H52.6895V45.6606H65.9184V43.2554Z" fill="#42210B"/>
<path d="M59.9053 74.5239H62.3105C62.3105 76.5683 60.7471 78.1318 58.7026 78.1318V75.7265C59.304 75.7265 59.9053 75.1252 59.9053 74.5239Z" fill="#42210B"/>
<path d="M58.7026 70.916V73.3212C58.1013 73.3212 57.5 73.9225 57.5 74.5239H55.0947C55.0947 72.4794 56.6582 70.916 58.7026 70.916Z" fill="#42210B"/>
<path d="M50.2842 43.2554H29.8394V45.6606H50.2842V43.2554Z" fill="#42210B"/>
<path d="M49.0815 57.687H29.8394V60.0923H49.0815V57.687Z" fill="#42210B"/>
<path d="M40.6631 50.4712H29.8394V52.8765H40.6631V50.4712Z" fill="#42210B"/>
<path d="M29.8394 26.4185H65.9184C66.5197 26.4185 67.1211 26.8995 67.1211 27.6211V34.8369C67.1211 35.4382 66.5197 36.0395 65.9184 36.0395H29.8394C29.1178 36.0395 28.6367 35.4382 28.6367 34.8369V27.6211C28.6367 27.5008 28.6367 27.5008 28.6367 27.3806C28.757 26.7792 29.238 26.4185 29.8394 26.4185ZM64.7158 33.6343V28.8237H31.042V33.6343H64.7158Z" fill="#42210B"/>
<path d="M51.9679 78.1318L45.9547 83.9044L47.9992 84.2652C48.4802 84.3855 48.841 84.7463 48.9613 85.2273L49.3221 87.2718L55.4555 80.8979C54.2529 80.2965 53.1705 79.3344 52.4489 78.1318H51.9679ZM88.6482 27.6211C88.0469 23.5321 84.5593 20.4053 80.3501 20.4053C76.1408 20.4053 72.6532 23.5321 72.0519 27.6211H88.6482ZM67.9629 90.5189L59.3039 81.7397C59.0634 81.7397 58.8229 81.7397 58.7026 81.7397C58.5823 81.7397 58.2216 81.7397 58.1013 81.7397L49.4423 90.6392C49.2018 90.8797 48.9613 91 48.6005 91C48.4802 91 48.3599 91 48.2397 91C47.8789 90.8797 47.5181 90.5189 47.3978 90.0379L46.6763 86.5502L43.1886 85.8287C42.7076 85.7084 42.3468 85.4679 42.2265 84.9868C42.1062 84.5058 42.2265 84.0247 42.5873 83.7842L48.4802 78.1318H25.0288C24.3072 78.1318 23.8262 77.5305 23.8262 76.9292V28.8237C23.8262 22.8105 28.6367 18 34.6499 18H80.3501C86.3632 18 91.1738 22.8105 91.1738 28.8237C91.1738 29.5453 90.5725 30.0264 89.9711 30.0264H71.9316V76.9292C71.9316 77.5305 71.3303 78.1318 70.729 78.1318H68.925L74.6977 83.7842C75.0585 84.145 75.1787 84.5058 75.0585 84.9868C74.9382 85.3476 74.5774 85.7084 74.0964 85.8287L70.729 86.5502L70.0074 90.0379C69.8871 90.5189 69.6466 90.8797 69.1655 91C69.0453 91 68.925 91 68.8048 91C68.5642 91 68.2034 90.7595 67.9629 90.5189ZM71.4506 83.9044L65.4374 78.1318H64.9563C64.2347 79.3344 63.2726 80.2965 61.9497 80.8979L68.0832 87.2718L68.444 85.2273C68.5642 84.7463 68.925 84.3855 69.4061 84.2652L71.4506 83.9044ZM58.7026 67.3081C62.6713 67.3081 65.9184 70.5552 65.9184 74.5239C65.9184 74.7644 65.9184 75.0049 65.9184 75.1252L66.5197 75.7265H69.5263V43.2554V34.8369V28.8237C69.5263 25.4563 71.0898 22.4498 73.6153 20.4053H34.6499C30.5609 20.4053 27.1936 23.2916 26.3517 27.14C26.3517 27.7414 26.2314 28.2224 26.2314 28.8237V45.6606V75.7265H51.0057L51.6071 75.1252C51.6071 74.8847 51.6071 74.6441 51.6071 74.5239C51.4868 70.5552 54.7339 67.3081 58.7026 67.3081ZM63.5132 74.5239C63.5132 71.8781 61.3484 69.7133 58.7026 69.7133C56.0568 69.7133 53.8921 71.8781 53.8921 74.5239C53.8921 77.1697 56.0568 79.3344 58.7026 79.3344C61.3484 79.3344 63.5132 77.1697 63.5132 74.5239Z" fill="#42210B"/>
<path d="M68.3237 29.9061V74.5239H65.9185C65.9185 74.7644 65.9185 75.0049 65.9185 75.1252L66.5198 75.7265H69.5264V43.2554V34.8369V28.8237C69.5264 25.4563 71.0898 22.3295 73.6153 20.4053H73.014C72.7735 20.5255 72.533 20.7661 72.2924 21.0066C69.6466 23.1713 68.3237 26.5387 68.3237 29.9061Z" fill="#D9CDC1"/>
<path d="M26.2314 28.463C26.2314 28.5832 26.2314 28.7035 26.2314 28.8237V45.6606V75.7265H51.0057L51.6071 75.1252C51.6071 74.8847 51.6071 74.6442 51.6071 74.5239H27.4341L26.2314 28.463Z" fill="#D9CDC1"/>
</svg>
