<svg width="107" height="100" viewBox="0 0 107 100" fill="none" xmlns="http://www.w3.org/2000/svg">
<ellipse cx="53.5" cy="50" rx="53.5" ry="50" fill="#FFBC47" fill-opacity="0.5"/>
<g clip-path="url(#clip0_168_201)">
<path d="M72.8906 19.2812H34.1094C32.8501 19.2812 31.8281 20.3021 31.8281 21.5625V47.7969C31.8281 59.7643 41.5314 69.4688 53.5 69.4688C65.4686 69.4688 75.1719 59.7643 75.1719 47.7969V21.5625C75.1719 20.3021 74.1499 19.2812 72.8906 19.2812Z" fill="#F9EBB2"/>
<path d="M85.4375 23.8438H77.4531V21.5625C77.4531 19.0383 75.4125 17 72.8906 17H34.1094C31.5875 17 29.5469 19.0383 29.5469 21.5625V23.8438H21.5625C19.0406 23.8438 17 25.882 17 28.4062V37.5312C17 44.4594 22.6176 50.0781 29.5469 50.0781H29.6621C30.7046 61.0966 39.216 69.9193 50.0781 71.4762V80.875H42.0938C39.5718 80.875 37.5312 82.9133 37.5312 85.4375V88.8594C37.5312 89.4879 38.0411 90 38.6719 90H68.3281C68.9589 90 69.4688 89.4879 69.4688 88.8594V85.4375C69.4688 82.9133 67.4282 80.875 64.9062 80.875H56.9219V71.4762C67.784 69.9193 76.2954 61.0966 77.3379 50.0781H77.4531C84.3824 50.0781 90 44.4594 90 37.5312V28.4062C90 25.882 87.9594 23.8438 85.4375 23.8438ZM29.5469 43.2344C26.3965 43.2344 23.8438 40.6794 23.8438 37.5312V30.6875H29.5469V43.2344ZM29.5469 28.4062H22.7031C22.0724 28.4062 21.5625 28.9138 21.5625 29.5469V37.5312C21.5625 41.9398 25.1372 45.5156 29.5469 45.5156V47.7969C23.8768 47.7969 19.2812 43.199 19.2812 37.5312V28.4062C19.2812 27.1459 20.3033 26.125 21.5625 26.125H29.5469V28.4062ZM64.9062 83.1562C66.1655 83.1562 67.1875 84.1771 67.1875 85.4375V87.7188H39.8125V85.4375C39.8125 84.1771 40.8345 83.1562 42.0938 83.1562H64.9062ZM52.3594 80.875V71.6895C52.7403 71.7078 53.1145 71.75 53.5 71.75C53.8855 71.75 54.2597 71.7078 54.6406 71.6895V80.875H52.3594ZM75.1719 43.2344V45.5156V47.7969C75.1719 59.7643 65.4686 69.4688 53.5 69.4688C41.5314 69.4688 31.8281 59.7643 31.8281 47.7969V45.5156V43.2344V21.5625C31.8281 20.3021 32.8501 19.2812 34.1094 19.2812H72.8906C74.1499 19.2812 75.1719 20.3021 75.1719 21.5625V43.2344ZM77.4531 30.6875H83.1562V37.5312C83.1562 40.6794 80.6035 43.2344 77.4531 43.2344V30.6875ZM87.7188 37.5312C87.7188 43.199 83.1232 47.7969 77.4531 47.7969V45.5156C81.8628 45.5156 85.4375 41.9398 85.4375 37.5312V29.5469C85.4375 28.9138 84.9276 28.4062 84.2969 28.4062H77.4531V26.125H85.4375C86.6967 26.125 87.7188 27.1459 87.7188 28.4062V37.5312Z" fill="#394240"/>
<path d="M61.6521 39.0814L56.7371 38.3308L54.5289 33.628C54.3407 33.2265 53.938 32.9733 53.4966 32.9733C53.0552 32.9733 52.6525 33.2277 52.4643 33.628L50.2561 38.3308L45.3411 39.0814C44.9191 39.1487 44.5678 39.4418 44.4321 39.8479C44.2963 40.2539 44.399 40.6988 44.6967 41.0068L48.2851 44.6875L47.4353 49.8934C47.3646 50.3234 47.5482 50.758 47.9041 51.01C48.26 51.2621 48.7311 51.2861 49.1143 51.0773L53.4955 48.6558L57.8766 51.0773C58.0511 51.172 58.2416 51.2188 58.4309 51.2188C58.6614 51.2188 58.8918 51.148 59.0879 51.0089C59.4438 50.7568 59.6275 50.3222 59.5567 49.8922L58.707 44.6864L62.2954 41.0056C62.5942 40.6976 62.6969 40.2528 62.56 39.8467C62.4231 39.4407 62.0752 39.1487 61.6521 39.0814ZM56.6721 43.5059C56.4189 43.7648 56.3048 44.1275 56.363 44.4857L56.9276 47.9406L54.0509 46.3494C53.8787 46.2536 53.6894 46.2069 53.4989 46.2069C53.3084 46.2069 53.1191 46.2536 52.9468 46.3494L50.0702 47.9406L50.6348 44.4857C50.6929 44.1275 50.5777 43.7636 50.3257 43.5059L47.8836 41.0045L51.2062 40.4946C51.5815 40.4387 51.9043 40.198 52.0663 39.8536L53.5 36.799L54.9338 39.8536C55.0958 40.1992 55.4186 40.4399 55.7938 40.4946L59.1165 41.0045L56.6721 43.5059Z" fill="#394240"/>
<path d="M56.6721 43.5058C56.4188 43.7647 56.3048 44.1275 56.3629 44.4856L56.9276 47.9406L54.0509 46.3494C53.8787 46.2536 53.6893 46.2068 53.4988 46.2068C53.3084 46.2068 53.119 46.2536 52.9468 46.3494L50.0701 47.9406L50.6347 44.4856C50.6929 44.1275 50.5777 43.7636 50.3256 43.5058L47.8835 41.0044L51.2062 40.4946C51.5815 40.4387 51.9042 40.198 52.0662 39.8535L53.5 36.799L54.9337 39.8535C55.0957 40.1992 55.4185 40.4398 55.7938 40.4946L59.1164 41.0044L56.6721 43.5058Z" fill="#F76D57"/>
<path d="M19.2812 28.4062V37.5312C19.2812 43.199 23.8768 47.7969 29.5469 47.7969V45.5156C25.1372 45.5156 21.5625 41.9398 21.5625 37.5312V29.5469C21.5625 28.9138 22.0724 28.4062 22.7031 28.4062H29.5469V26.125H21.5625C20.3033 26.125 19.2812 27.1459 19.2812 28.4062Z" fill="#B4CCB9"/>
<path d="M85.4375 26.125H77.4531V28.4062H84.2969C84.9276 28.4062 85.4375 28.9138 85.4375 29.5469V37.5312C85.4375 41.9398 81.8628 45.5156 77.4531 45.5156V47.7969C83.1232 47.7969 87.7188 43.199 87.7188 37.5312V28.4062C87.7188 27.1459 86.6967 26.125 85.4375 26.125Z" fill="#B4CCB9"/>
<path d="M64.9062 83.1562H42.0938C40.8345 83.1562 39.8125 84.1771 39.8125 85.4375V87.7188H67.1875V85.4375C67.1875 84.1771 66.1655 83.1562 64.9062 83.1562Z" fill="#B4CCB9"/>
<path d="M54.6406 71.6895C54.2597 71.7078 53.8855 71.75 53.5 71.75C53.1145 71.75 52.7403 71.7078 52.3594 71.6895V80.875H54.6406V71.6895Z" fill="#B4CCB9"/>
<path opacity="0.15" d="M54.6406 71.6896C54.2597 71.7078 53.8855 71.75 53.5 71.75C53.1145 71.75 52.7403 71.7078 52.3594 71.6896V80.875H54.6406V71.6896Z" fill="#231F20"/>
</g>
<defs>
<clipPath id="clip0_168_201">
<rect width="73" height="73" fill="white" transform="translate(17 17)"/>
</clipPath>
</defs>
</svg>
