<svg width="50" height="50" viewBox="0 0 50 50" fill="none" xmlns="http://www.w3.org/2000/svg">
<g clip-path="url(#clip0_169_13)">
<path d="M34.5711 14.161C36.0943 16.1946 36.9094 18.5905 36.9094 21.1098C36.5553 20.871 36.119 20.7969 35.7074 20.9205C35.2711 21.0604 34.8346 21.1263 34.3983 21.1263C31.1791 21.1263 28.7091 17.3638 28.6927 17.3308C28.2892 16.7051 27.4494 16.5074 26.8156 16.8862C26.7497 16.9273 19.7104 21.118 15.0092 21.118C14.4164 21.118 13.5849 20.9863 13.1486 20.8545C13.2063 18.5328 13.9472 16.3016 15.3056 14.3915C15.7996 13.5929 15.5938 12.6461 14.6799 12.2839L7.43457 9.50929L24.6007 2.89807L41.7669 9.50929L35.1804 12.0368C34.3734 12.325 34.003 13.3623 34.5711 14.161Z" fill="white"/>
<path d="M36.9093 37.1316V24.6913C36.0365 27.367 34.0441 31.8624 30.0099 34.6205C31.006 35.5179 32.0435 36.8764 32.3151 38.7536C32.381 39.4288 31.9282 40.2274 31.1049 40.3261C30.9566 40.3425 27.1859 40.9354 25.9509 46.4186C25.8686 46.7397 25.6874 47.0279 25.4404 47.2173H45.6281L41.9396 39.2887C41.7255 38.8276 41.2398 38.523 40.7211 38.523H38.317C37.5433 38.5147 36.9093 37.8973 36.9093 37.1316Z" fill="white"/>
<path d="M23.7528 47.2253C23.4975 47.0277 23.3082 46.756 23.2423 46.4267C21.9991 40.9433 18.2366 40.3506 18.0719 40.3259C17.2979 40.1859 16.7711 39.5355 16.8699 38.7534C17.1334 36.8763 18.1707 35.5178 19.1752 34.6203C16.1371 32.5538 14.2517 29.491 13.1403 26.9635V37.1314C13.1403 37.8971 12.5228 38.5228 11.7489 38.5228H8.472C7.95327 38.5228 7.46753 38.8274 7.25345 39.2885L3.56494 47.217L23.7528 47.2253Z" fill="white"/>
<path d="M26.8154 33.2373C31.2366 31.2614 33.3608 26.5684 34.2417 23.9092C30.9073 23.8269 28.3632 21.357 27.1529 19.8915C24.8312 21.1594 19.2985 23.9092 15.009 23.9092C14.9925 23.9092 14.9678 23.9092 14.9431 23.9092C15.8323 26.5685 17.9647 31.2614 22.3611 33.2373C23.382 33.6984 23.4809 35.2627 22.3529 35.7731C22.3446 35.7814 20.7391 36.5141 19.9817 38.0043C21.3073 38.5394 23.2009 39.7003 24.584 42.1785C25.9754 39.7003 27.8691 38.5477 29.1863 38.0043C28.4289 36.5058 26.8316 35.7813 26.8152 35.7731C25.6627 35.1968 25.7863 33.7313 26.8154 33.2373Z" fill="#FFC10D"/>
<path d="M47.0113 21.4227V9.50113C47.0113 8.90828 46.6408 8.40611 46.1221 8.20858L25.0946 0.0988872C24.7736 -0.0327996 24.4195 -0.0327996 24.0984 0.0988872L3.06267 8.20858C1.84413 8.7026 1.90997 10.3656 3.06267 10.7938L12.1027 14.2764C10.9501 16.384 10.349 18.7223 10.349 21.1347V35.732H8.4719C6.86644 35.732 5.40094 36.6706 4.7341 38.1032L0.139965 47.9994C0.0494144 48.1805 0 48.3863 0 48.6087C0 49.3744 0.625704 50.0001 1.39137 50.0001H47.7934C47.8017 50.0001 47.8017 50.0001 47.8017 50.0001C49.0284 50.0001 49.473 48.6498 48.9708 47.8677L44.4425 38.1279C43.7757 36.6788 42.3102 35.7567 40.7047 35.7567H39.692V21.1428C39.692 18.6153 39.0416 16.1865 37.7819 14.0047L44.2284 11.5265V21.5051C42.6147 22.1061 41.4703 23.654 41.4703 25.4653V29.9523C41.4703 30.718 42.0877 31.3437 42.8617 31.3437C43.6273 31.3437 44.253 30.7263 44.253 29.9523V25.4653C44.253 24.6666 44.9199 24.0162 45.735 24.0162C46.55 24.0162 47.2169 24.6666 47.2169 25.4653V29.9523C47.2169 30.718 47.8343 31.3437 48.6082 31.3437C49.3822 31.3437 49.9996 30.7263 49.9996 29.9523V25.4653C49.9917 23.5633 48.7403 21.9662 47.0113 21.4227ZM3.56497 47.2255L7.2452 39.2804C7.45928 38.8194 7.94502 38.5148 8.46375 38.5148H11.7405C12.5062 38.5148 13.1319 37.8974 13.1319 37.1234V26.9636C14.2433 29.4912 16.1206 32.554 19.1668 34.6205C18.1706 35.5178 17.1332 36.8763 16.8615 38.7536C16.7627 39.5439 17.2814 40.1944 18.0635 40.326C18.2199 40.3425 21.9907 40.9353 23.2339 46.4268C23.3162 46.7479 23.4974 47.0361 23.7444 47.2255H3.56497ZM19.9819 38.0126C20.7393 36.5141 22.3449 35.7814 22.353 35.7814C23.481 35.271 23.3903 33.7067 22.3613 33.2456C17.9648 31.278 15.8242 26.585 14.9433 23.9175C14.9597 23.9175 14.9844 23.9175 15.0091 23.9175C19.2986 23.9175 24.8313 21.1759 27.1531 19.8998C28.3716 21.3653 30.8992 23.8353 34.2419 23.9175C33.361 26.5686 31.2285 31.2616 26.8156 33.2375C25.7947 33.7397 25.6547 35.197 26.8239 35.7733C26.8403 35.7816 28.4376 36.5225 29.195 38.0045C27.8695 38.5396 25.9758 39.7005 24.5927 42.1787C23.2011 39.7086 21.3157 38.5478 19.9819 38.0126ZM38.3089 38.5148H40.713C41.2317 38.5148 41.7175 38.8194 41.9316 39.2804L45.6201 47.209H25.424C25.6792 47.0114 25.8686 46.7397 25.9344 46.4104C27.1777 40.927 30.9402 40.3343 31.0884 40.3179C31.9118 40.2191 32.3811 39.4205 32.2987 38.7454C32.0352 36.8683 30.9979 35.5098 29.9934 34.6123C34.0358 31.8707 36.0283 27.3588 36.8928 24.6831V37.1234C36.9093 37.8974 37.5432 38.5148 38.3089 38.5148ZM35.1803 12.0369C34.3735 12.3251 34.003 13.3625 34.571 14.1611C36.0942 16.1947 36.9093 18.5906 36.9093 21.1099C36.5552 20.8712 36.1189 20.797 35.7073 20.9206C35.2709 21.0605 34.8345 21.1264 34.3982 21.1264C31.179 21.1264 28.709 17.3639 28.6926 17.3309C28.2891 16.7052 27.4493 16.5075 26.8155 16.8863C26.7496 16.9274 19.7102 21.1181 15.0091 21.1181C14.4163 21.1181 13.5848 20.9864 13.1484 20.8546C13.2061 18.5329 13.9471 16.3017 15.3055 14.3916C15.7995 13.593 15.5937 12.6462 14.6798 12.284L7.43458 9.5094L24.6007 2.89819L41.7669 9.5094L35.1803 12.0369Z" fill="#194F82"/>
</g>
<defs>
<clipPath id="clip0_169_13">
<rect width="50" height="50" fill="white"/>
</clipPath>
</defs>
</svg>
