<svg width="53" height="53" viewBox="0 0 53 53" fill="none" xmlns="http://www.w3.org/2000/svg">
<path d="M48.2153 47.5781L44.2244 30.7114C44.2244 30.6955 44.2329 30.6817 44.2329 30.6658V5.30002C44.2329 5.15945 44.177 5.02465 44.0776 4.92525C43.9782 4.82586 43.8434 4.77002 43.7029 4.77002H9.29738C9.15682 4.77002 9.02201 4.82586 8.92261 4.92525C8.82322 5.02465 8.76738 5.15945 8.76738 5.30002V30.6658C8.76738 30.6817 8.7748 30.6955 8.77586 30.7114L4.78496 47.5781C4.76658 47.6559 4.76603 47.7368 4.78334 47.8148C4.80065 47.8928 4.83537 47.9659 4.88492 48.0286C4.93447 48.0913 4.99755 48.142 5.06945 48.1769C5.14135 48.2118 5.22021 48.2299 5.30012 48.23H47.7001C47.78 48.2299 47.8589 48.2118 47.9308 48.1769C48.0027 48.142 48.0658 48.0913 48.1153 48.0286C48.1649 47.9659 48.1996 47.8928 48.2169 47.8148C48.2342 47.7368 48.2337 47.6559 48.2153 47.5781Z" fill="#231F20"/>
<path d="M43.1737 5.83008H9.82715V30.1359H43.1737V5.83008Z" fill="#8D7F89"/>
<path d="M40.9467 7.60547H12.0532C11.7605 7.60547 11.5232 7.84276 11.5232 8.13547V27.8303C11.5232 28.123 11.7605 28.3603 12.0532 28.3603H40.9467C41.2394 28.3603 41.4767 28.123 41.4767 27.8303V8.13547C41.4767 7.84276 41.2394 7.60547 40.9467 7.60547Z" fill="#231F20"/>
<path d="M40.4167 8.66553H12.5833V27.3003H40.4167V8.66553Z" fill="white"/>
<path d="M22.1243 47.17L22.8122 44.2603H30.1877L30.8756 47.17H22.1243Z" fill="#C6B9C4"/>
<path d="M31.9643 47.17L31.1163 43.6084C31.0889 43.4923 31.0231 43.3889 30.9297 43.3149C30.8362 43.2408 30.7205 43.2004 30.6012 43.2003H22.3936C22.2743 43.2004 22.1586 43.2408 22.0651 43.3149C21.9717 43.3889 21.9059 43.4923 21.8784 43.6084L21.0304 47.17H5.96997L9.75205 31.1958H43.248L47.0301 47.17H31.9643Z" fill="#8D7F89"/>
<path d="M26.7787 21.8996H37.9087C38.0493 21.8996 38.1841 21.8438 38.2835 21.7444C38.3829 21.645 38.4387 21.5102 38.4387 21.3696C38.4387 21.229 38.3829 21.0942 38.2835 20.9948C38.1841 20.8954 38.0493 20.8396 37.9087 20.8396H36.9992V12.6479C36.9992 12.5074 36.9434 12.3725 36.844 12.2732C36.7446 12.1738 36.6098 12.1179 36.4692 12.1179C36.3287 12.1179 36.1939 12.1738 36.0945 12.2732C35.9951 12.3725 35.9392 12.5074 35.9392 12.6479V20.8396H34.2432V14.3174C34.2432 14.1769 34.1874 14.042 34.088 13.9427C33.9886 13.8433 33.8538 13.7874 33.7132 13.7874C33.5727 13.7874 33.4379 13.8433 33.3385 13.9427C33.2391 14.042 33.1832 14.1769 33.1832 14.3174V20.8396H31.4872V16.2042C31.4872 16.0637 31.4314 15.9288 31.332 15.8295C31.2326 15.7301 31.0978 15.6742 30.9572 15.6742C30.8167 15.6742 30.6819 15.7301 30.5825 15.8295C30.4831 15.9288 30.4272 16.0637 30.4272 16.2042V20.8396H28.7312V18.1525C28.7312 18.0119 28.6754 17.8771 28.576 17.7777C28.4766 17.6783 28.3418 17.6225 28.2012 17.6225C28.0607 17.6225 27.9259 17.6783 27.8265 17.7777C27.7271 17.8771 27.6712 18.0119 27.6712 18.1525V20.8396H26.7639C26.6233 20.8396 26.4885 20.8954 26.3891 20.9948C26.2897 21.0942 26.2339 21.229 26.2339 21.3696C26.2339 21.5102 26.2897 21.645 26.3891 21.7444C26.4885 21.8438 26.6233 21.8996 26.7639 21.8996H26.7787Z" fill="#231F20"/>
<path d="M19.822 21.8361C20.8629 21.8361 21.8804 21.5274 22.7459 20.9491C23.6114 20.3709 24.2859 19.5489 24.6843 18.5872C25.0826 17.6256 25.1868 16.5674 24.9838 15.5465C24.7807 14.5256 24.2794 13.5878 23.5434 12.8518C22.8074 12.1157 21.8696 11.6145 20.8487 11.4114C19.8278 11.2084 18.7696 11.3126 17.808 11.7109C16.8463 12.1093 16.0243 12.7838 15.446 13.6493C14.8677 14.5148 14.5591 15.5323 14.5591 16.5732C14.5602 17.9687 15.115 19.3067 16.1018 20.2934C17.0885 21.2801 18.4265 21.835 19.822 21.8361Z" fill="#231F20"/>
<path d="M23.9688 16.0453H20.3521V12.4275C21.2702 12.5455 22.1233 12.9646 22.7777 13.6192C23.4322 14.2739 23.8511 15.1271 23.9688 16.0453Z" fill="#D12200"/>
<path d="M19.2921 12.4275V15.5534L16.7322 13.7514C17.4013 13.0203 18.3087 12.551 19.2921 12.4275Z" fill="#00A1D3"/>
<path d="M16.1227 14.6196L19.5147 17.0089C19.5242 17.0152 19.537 17.0089 19.5476 17.0195C19.6285 17.0732 19.7229 17.103 19.82 17.1053H23.9688C23.8972 17.7187 23.6909 18.3088 23.3647 18.8331C23.0384 19.3575 22.6003 19.8033 22.0817 20.1386C21.563 20.4738 20.9767 20.6903 20.3646 20.7725C19.7525 20.8547 19.1298 20.8006 18.5411 20.614C17.9524 20.4275 17.4121 20.1131 16.9591 19.6934C16.5061 19.2736 16.1514 18.759 15.9205 18.1862C15.6897 17.6134 15.5882 16.9966 15.6236 16.38C15.6589 15.7635 15.83 15.1623 16.1248 14.6196H16.1227Z" fill="#7CC05B"/>
<path d="M37.913 23.5925H21.7915C21.6509 23.5925 21.5161 23.6484 21.4167 23.7478C21.3173 23.8472 21.2615 23.982 21.2615 24.1225C21.2615 24.2631 21.3173 24.3979 21.4167 24.4973C21.5161 24.5967 21.6509 24.6525 21.7915 24.6525H37.913C38.0536 24.6525 38.1884 24.5967 38.2878 24.4973C38.3872 24.3979 38.443 24.2631 38.443 24.1225C38.443 23.982 38.3872 23.8472 38.2878 23.7478C38.1884 23.6484 38.0536 23.5925 37.913 23.5925Z" fill="#231F20"/>
<path d="M42.7731 40.6711L41.0326 33.319C41.0051 33.2029 40.9394 33.0995 40.8459 33.0254C40.7524 32.9514 40.6367 32.911 40.5174 32.9109H12.4825C12.3633 32.911 12.2475 32.9514 12.1541 33.0254C12.0606 33.0995 11.9948 33.2029 11.9674 33.319L10.2269 40.6711C10.2085 40.749 10.2079 40.83 10.2253 40.9081C10.2427 40.9862 10.2775 41.0594 10.3271 41.1221C10.3768 41.1848 10.44 41.2355 10.5121 41.2703C10.5841 41.3051 10.6631 41.3231 10.7431 41.323H42.2569C42.3369 41.3231 42.4159 41.3051 42.4879 41.2703C42.5599 41.2355 42.6231 41.1848 42.6728 41.1221C42.7225 41.0594 42.7573 40.9862 42.7747 40.9081C42.792 40.83 42.7915 40.749 42.7731 40.6711Z" fill="#231F20"/>
<path d="M11.4131 40.2631L12.9024 33.9709H40.0977L41.587 40.2631H11.4131Z" fill="#C6B9C4"/>
</svg>
