<svg width="107" height="100" viewBox="0 0 107 100" fill="none" xmlns="http://www.w3.org/2000/svg">
<ellipse cx="53.5" cy="50" rx="53.5" ry="50" fill="#FF2D8D" fill-opacity="0.5"/>
<path d="M52.7488 84.8C52.9609 84.8 53.1644 84.7157 53.3145 84.5657C53.4645 84.4157 53.5488 84.2122 53.5488 84V75.6544C53.5479 74.6095 53.1325 73.6076 52.3936 72.8688C51.6547 72.1299 50.6529 71.7145 49.608 71.7136H47.8336C47.3503 71.7136 46.8718 71.6184 46.4253 71.4335C45.9788 71.2485 45.5731 70.9775 45.2314 70.6358C44.8897 70.294 44.6186 69.8884 44.4337 69.4419C44.2488 68.9954 44.1536 68.5169 44.1536 68.0336V62.6672C44.1531 62.0056 43.8903 61.3713 43.4226 60.9033C42.955 60.4353 42.3207 60.1721 41.6592 60.1712H40.1616C39.9964 60.1708 39.8335 60.1321 39.6858 60.0582C39.538 59.9844 39.4094 59.8773 39.3099 59.7455C39.2104 59.6136 39.1428 59.4605 39.1123 59.2981C39.0819 59.1358 39.0894 58.9686 39.1344 58.8096L45.1824 37.584C48.0624 30.52 58.2544 26.3376 65.4224 27.3232C65.8688 27.384 66.3216 27.4592 66.7712 27.5456C70.8586 28.369 74.6447 30.2898 77.7231 33.1021C80.8015 35.9143 83.056 39.5118 84.2446 43.5084C85.4332 47.5049 85.5111 51.7497 84.4698 55.7872C83.4286 59.8246 81.3076 63.5024 78.3344 66.4256C77.2151 67.5042 76.3234 68.7961 75.7119 70.2252C75.1005 71.6542 74.7817 73.1913 74.7744 74.7456V84C74.7744 84.2122 74.8586 84.4157 75.0087 84.5657C75.1587 84.7157 75.3622 84.8 75.5744 84.8H52.7488Z" fill="#F7D2D0"/>
<path d="M38.8816 43.1072V41.7296C38.8773 41.2718 38.7095 40.8305 38.4085 40.4855C38.1075 40.1405 37.6931 39.9144 37.24 39.848C37.3067 38.5391 37.8515 37.3002 38.7712 36.3664C39.7305 35.3534 40.4711 34.1538 40.947 32.8423C41.4228 31.5308 41.6238 30.1354 41.5373 28.7429C41.4509 27.3504 41.0789 25.9906 40.4445 24.748C39.8101 23.5054 38.9268 22.4067 37.8496 21.52C36.6774 20.5576 35.3058 19.8679 33.8342 19.501C32.3625 19.134 30.8277 19.099 29.3408 19.3984C27.563 19.7606 25.9144 20.5917 24.5658 21.8055C23.2173 23.0193 22.218 24.5717 21.6714 26.3018C21.1248 28.0318 21.0508 29.8766 21.4572 31.6449C21.8635 33.4131 22.7354 35.0405 23.9824 36.3584C24.905 37.2941 25.4522 38.5358 25.52 39.848C25.067 39.9144 24.6526 40.1405 24.3516 40.4855C24.0506 40.8305 23.8828 41.2718 23.8784 41.7296V43.1072C23.8789 43.622 24.0834 44.1155 24.4473 44.4797C24.8111 44.8438 25.3045 45.0488 25.8192 45.0496H25.904C26.0358 46.41 26.6693 47.6725 27.6813 48.5912C28.6932 49.5099 30.0109 50.0188 31.3776 50.0188C32.7444 50.0188 34.0621 49.5099 35.074 48.5912C36.0859 47.6725 36.7195 46.41 36.8512 45.0496H36.9408C37.4556 45.0488 37.949 44.8438 38.3128 44.4797C38.6767 44.1155 38.8812 43.622 38.8816 43.1072Z" fill="#231F20"/>
<path d="M22.9343 27.8272C23.2336 26.1402 24.0353 24.5829 25.2343 23.3591C26.4333 22.1352 27.9738 21.3018 29.6543 20.968C30.9092 20.7162 32.2043 20.7458 33.4463 21.0549C34.6882 21.3639 35.8462 21.9446 36.8367 22.7552C37.745 23.5019 38.4899 24.4276 39.025 25.4746C39.56 26.5217 39.8738 27.6677 39.9468 28.8412C40.0197 30.0148 39.8503 31.1908 39.449 32.2961C39.0477 33.4014 38.4232 34.4122 37.6143 35.2656C36.4299 36.4825 35.7321 38.0909 35.6527 39.7872H32.1775V36.6624C32.8203 36.4703 33.3725 36.0533 33.7331 35.4876C34.0938 34.9219 34.2388 34.2453 34.1417 33.5815C34.0446 32.9177 33.7119 32.311 33.2044 31.8723C32.6968 31.4336 32.0484 31.1922 31.3775 31.1922C30.7067 31.1922 30.0582 31.4336 29.5507 31.8723C29.0431 32.311 28.7104 32.9177 28.6133 33.5815C28.5162 34.2453 28.6613 34.9219 29.0219 35.4876C29.3826 36.0533 29.9347 36.4703 30.5775 36.6624V39.7872H27.1103C27.0299 38.0893 26.3304 36.4796 25.1439 35.2624C24.2171 34.284 23.534 33.1008 23.1501 31.809C22.7662 30.5171 22.6923 29.153 22.9343 27.8272Z" fill="#FFBA50"/>
<path d="M31.3776 35.2C31.1411 35.2 30.91 35.1299 30.7134 34.9985C30.5168 34.8671 30.3636 34.6803 30.2732 34.4618C30.1828 34.2434 30.1592 34.003 30.2055 33.7711C30.2517 33.5392 30.3657 33.3262 30.533 33.1591C30.7003 32.992 30.9134 32.8783 31.1454 32.8324C31.3773 32.7865 31.6177 32.8104 31.8361 32.9011C32.0544 32.9918 32.241 33.1452 32.3721 33.342C32.5033 33.5387 32.5731 33.77 32.5728 34.0064C32.5723 34.3231 32.4462 34.6267 32.2221 34.8505C31.998 35.0743 31.6943 35.2 31.3776 35.2Z" fill="#FFBA50"/>
<path d="M36.9408 41.3872H25.8144C25.6262 41.3872 25.4736 41.5398 25.4736 41.728V43.1088C25.4736 43.297 25.6262 43.4496 25.8144 43.4496H36.9408C37.1291 43.4496 37.2816 43.297 37.2816 43.1088V41.728C37.2816 41.5398 37.1291 41.3872 36.9408 41.3872Z" fill="#8D7F89"/>
<path d="M31.3775 48.4176C30.4351 48.4145 29.5253 48.0726 28.8141 47.4543C28.103 46.8359 27.6379 45.9824 27.5039 45.0496H35.2511C35.1174 45.9826 34.6524 46.8362 33.9412 47.4546C33.23 48.073 32.32 48.4149 31.3775 48.4176Z" fill="#8D7F89"/>
<path d="M73.5056 58.6672H73.4832L73.2864 58.6416C73.1493 58.6309 73.0117 58.6558 72.887 58.7138C72.7622 58.7718 72.6546 58.861 72.5744 58.9728C72.4941 59.0845 72.4439 59.2151 72.4288 59.3518C72.4136 59.4886 72.434 59.627 72.488 59.7536L74.7472 65.0464C74.7885 65.143 74.8484 65.2306 74.9235 65.3041C74.9987 65.3776 75.0875 65.4356 75.1851 65.4747C75.2826 65.5139 75.3869 65.5334 75.492 65.5323C75.5971 65.5311 75.7009 65.5093 75.7976 65.468C75.8942 65.4267 75.9818 65.3668 76.0553 65.2916C76.1288 65.2165 76.1868 65.1276 76.2259 65.0301C76.2651 64.9326 76.2846 64.8283 76.2835 64.7232C76.2823 64.6181 76.2605 64.5142 76.2192 64.4176L74.4224 60.2112C75.7981 59.9446 77.0349 59.1995 77.9136 58.1079C78.7922 57.0163 79.2559 55.6489 79.2224 54.248C79.2215 53.8566 79.1808 53.4663 79.1008 53.0832C79.7109 52.5032 80.1951 51.8039 80.5235 51.0288C80.8519 50.2537 81.0173 49.4193 81.0096 48.5776C81.058 47.0302 80.4913 45.5267 79.4337 44.3962C78.376 43.2657 76.9135 42.6003 75.3664 42.5456C75.1738 42.5461 74.9815 42.5584 74.7904 42.5824C74.4184 41.2608 73.6321 40.0935 72.5471 39.2522C71.4621 38.4109 70.1358 37.94 68.7632 37.9088C67.4059 37.9091 66.0886 38.3687 65.0256 39.2128C64.559 38.4748 63.9134 37.8669 63.1486 37.4457C62.3839 37.0244 61.5251 36.8035 60.652 36.8035C59.7789 36.8035 58.9201 37.0244 58.1554 37.4457C57.3906 37.8669 56.745 38.4748 56.2784 39.2128C54.988 39.0394 53.6759 39.2801 52.5312 39.9004C51.3865 40.5206 50.4682 41.4883 49.9088 42.664C48.7493 42.8543 47.698 43.4586 46.9499 44.3647C46.2018 45.2708 45.8074 46.4174 45.84 47.592C45.8399 48.6675 46.1755 49.7163 46.8 50.592C46.3544 51.4773 46.1236 52.4552 46.1264 53.4464C46.0788 54.9918 46.6445 56.4932 47.7 57.623C48.7554 58.7528 50.215 59.4192 51.76 59.4768C53.1108 59.4744 54.4105 58.9598 55.3968 58.0368C56.0697 59.1946 57.1403 60.0685 58.4095 60.4959C59.6786 60.9232 61.0598 60.875 62.296 60.36C62.8702 61.4324 63.7881 62.2807 64.9023 62.7688C66.0165 63.2568 67.2625 63.3563 68.44 63.0512L71.2432 67.2112C71.3616 67.3873 71.5451 67.5091 71.7533 67.55C71.9616 67.5908 72.1775 67.5472 72.3536 67.4288C72.5297 67.3104 72.6516 67.1269 72.6924 66.9187C72.7332 66.7104 72.6896 66.4945 72.5712 66.3184L69.4288 61.6528C69.3267 61.5012 69.1757 61.3892 69.0011 61.3353C68.8264 61.2815 68.6386 61.289 68.4688 61.3568C67.5913 61.7162 66.6103 61.73 65.7231 61.3954C64.8358 61.0609 64.1082 60.4028 63.6864 59.5536C65.3195 58.5813 67.1548 57.9988 69.0496 57.8512C69.2611 57.8352 69.4576 57.7359 69.596 57.5751C69.7343 57.4143 69.8031 57.2051 69.7872 56.9936C69.7814 56.8879 69.7544 56.7846 69.7076 56.6897C69.6608 56.5948 69.5953 56.5103 69.515 56.4414C69.4348 56.3725 69.3414 56.3205 69.2405 56.2887C69.1396 56.2568 69.0333 56.2457 68.928 56.256C66.5409 56.4349 64.2414 57.2322 62.256 58.5696C62.2416 58.5696 62.224 58.5696 62.2096 58.5872C61.6928 58.9011 61.1109 59.0922 60.5086 59.146C59.9064 59.1997 59.2998 59.1146 58.7356 58.8971C58.1714 58.6797 57.6645 58.3358 57.2541 57.8917C56.8436 57.4477 56.5405 56.9155 56.368 56.336C56.368 56.3264 56.3552 56.3216 56.352 56.3136C56.1467 55.695 55.8882 55.0954 55.5792 54.5216C56.0302 54.0739 56.3576 53.517 56.5295 52.9052C56.7014 52.2934 56.7119 51.6475 56.56 51.0304C56.5343 50.9255 56.4876 50.8269 56.4228 50.7405C56.3579 50.6541 56.2763 50.5817 56.1827 50.5278C56.0892 50.4738 55.9857 50.4393 55.8784 50.4265C55.7712 50.4136 55.6624 50.4225 55.5588 50.4528C55.4551 50.4831 55.3586 50.534 55.2751 50.6026C55.1917 50.6712 55.123 50.7559 55.0732 50.8517C55.0233 50.9476 54.9934 51.0525 54.9853 51.1602C54.9771 51.2679 54.9908 51.3761 55.0256 51.4784C55.0888 51.7693 55.0888 52.0704 55.0255 52.3614C54.9623 52.6523 54.8374 52.9263 54.6592 53.1648C54.0529 52.364 53.1991 51.7858 52.2304 51.52C52.1287 51.5023 52.0245 51.5048 51.9238 51.5274C51.8231 51.55 51.7278 51.5922 51.6434 51.6516C51.559 51.7111 51.4871 51.7866 51.4319 51.8738C51.3767 51.961 51.3392 52.0583 51.3216 52.16C51.2845 52.3664 51.329 52.5792 51.4457 52.7535C51.5624 52.9278 51.7422 53.05 51.9472 53.0944C52.0176 53.1088 53.5664 53.5104 54.6864 56.4416C54.335 56.8818 53.8908 57.239 53.3856 57.4879C52.8803 57.7368 52.3264 57.8712 51.7632 57.8816C50.6386 57.8268 49.5815 57.3287 48.8234 56.4962C48.0653 55.6637 47.668 54.5648 47.7184 53.44C47.7152 52.5534 47.9619 51.6839 48.4304 50.9312C48.5225 50.7837 48.5641 50.6102 48.5488 50.437C48.5335 50.2638 48.4622 50.1002 48.3456 49.9712C47.7594 49.3153 47.4373 48.4653 47.4416 47.5856C47.4025 46.7395 47.6965 45.9118 48.2607 45.28C48.8248 44.6483 49.6141 44.2628 50.4592 44.2064C50.6112 44.2023 50.759 44.155 50.8851 44.07C51.0112 43.985 51.1104 43.8658 51.1712 43.7264C51.5151 42.8646 52.1038 42.1223 52.8647 41.5912C53.6256 41.0601 54.5253 40.7633 55.4528 40.7376C55.8014 40.7412 56.1484 40.7863 56.4864 40.872C56.6587 40.9139 56.8401 40.8973 57.002 40.8249C57.1639 40.7525 57.2971 40.6284 57.3808 40.472C57.6635 39.8598 58.1137 39.34 58.6793 38.9728C59.2449 38.6055 59.9028 38.4058 60.5771 38.3966C61.2514 38.3874 61.9145 38.5691 62.4899 38.9208C63.0653 39.2724 63.5295 39.7797 63.8288 40.384C63.1586 41.0892 62.6689 41.9461 62.4016 42.8816C61.8465 42.8468 61.2901 42.9238 60.7654 43.1083C60.2407 43.2927 59.7584 43.5807 59.3472 43.9552C59.215 44.1073 59.145 44.3037 59.1514 44.5051C59.1577 44.7066 59.2398 44.8982 59.3813 45.0417C59.5228 45.1852 59.7132 45.27 59.9145 45.2792C60.1159 45.2884 60.3132 45.2212 60.4672 45.0912C60.9365 44.6783 61.5431 44.4558 62.168 44.4672C62.1576 45.1716 62.2837 45.8714 62.5392 46.528C62.5796 46.6249 62.6388 46.713 62.7133 46.7871C62.7878 46.8612 62.8761 46.9199 62.9733 46.9599C63.0704 46.9999 63.1745 47.0203 63.2796 47.02C63.3846 47.0198 63.4886 46.9988 63.5856 46.9584C63.6826 46.9179 63.7706 46.8588 63.8447 46.7843C63.9188 46.7098 63.9775 46.6215 64.0175 46.5243C64.0575 46.4272 64.0779 46.3231 64.0777 46.218C64.0774 46.1129 64.0564 46.0089 64.016 45.912C63.7162 45.0694 63.6826 44.155 63.9198 43.2927C64.1571 42.4303 64.6537 41.6618 65.3424 41.0912C65.3529 41.0791 65.3625 41.0662 65.3712 41.0528C65.3808 41.0528 65.3936 41.0416 65.4016 41.0336C65.8226 40.5567 66.3394 40.1741 66.9185 39.9108C67.4975 39.6475 68.1255 39.5094 68.7616 39.5056C69.8987 39.5492 70.9848 39.9889 71.8321 40.7485C72.6794 41.5081 73.2345 42.54 73.4016 43.6656C73.4217 43.7739 73.464 43.8769 73.5258 43.9682C73.5875 44.0594 73.6675 44.1369 73.7606 44.1958C73.8538 44.2547 73.9581 44.2937 74.067 44.3104C74.1759 44.3271 74.2871 44.3211 74.3936 44.2928C74.7059 44.2031 75.0287 44.1547 75.3536 44.1488C76.4762 44.204 77.5314 44.7009 78.2888 45.5313C79.0463 46.3616 79.4446 47.4579 79.3968 48.5808C79.3977 49.5586 79.0872 50.5113 78.5104 51.3008C77.9124 50.0589 76.8488 49.1028 75.5504 48.64C74.5847 48.2844 73.5525 48.1462 72.5273 48.2353C71.5021 48.3243 70.5091 48.6384 69.6192 49.1552C69.4495 49.2825 69.3372 49.472 69.3072 49.682C69.2772 49.8921 69.3319 50.1054 69.4592 50.2752C69.5865 50.4449 69.776 50.5571 69.9861 50.5871C70.1961 50.6171 70.4095 50.5625 70.5792 50.4352C71.1718 50.0855 71.842 49.8886 72.5296 49.8624C72.5997 50.3138 72.5341 50.7759 72.3413 51.1901C72.1484 51.6042 71.837 51.9518 71.4464 52.1888C71.355 52.2407 71.2747 52.3101 71.2101 52.393C71.1456 52.4759 71.0979 52.5708 71.07 52.6721C71.0421 52.7734 71.0344 52.8792 71.0473 52.9836C71.0603 53.0879 71.0937 53.1886 71.1456 53.28C71.1975 53.3714 71.2669 53.4517 71.3498 53.5162C71.4327 53.5808 71.5276 53.6284 71.6289 53.6564C71.7302 53.6843 71.8361 53.692 71.9404 53.679C72.0447 53.6661 72.1454 53.6327 72.2368 53.5808C72.8663 53.214 73.379 52.6764 73.7154 52.0302C74.0518 51.3839 74.1982 50.6556 74.1376 49.9296C74.4301 49.9755 74.7177 50.0483 74.9968 50.1472C75.6161 50.3597 76.1676 50.7331 76.595 51.229C77.0224 51.725 77.3101 52.3257 77.4288 52.9696V52.9904V53.0016C77.5449 53.4066 77.6068 53.8251 77.6128 54.2464C77.635 54.8067 77.5463 55.366 77.3516 55.8919C77.157 56.4178 76.8603 56.9001 76.4786 57.3109C76.0969 57.7218 75.6377 58.0531 75.1275 58.2859C74.6173 58.5186 74.0661 58.6482 73.5056 58.6672Z" fill="#231F20"/>
<path d="M86.5503 46.5184C85.8035 41.5113 83.5352 36.8549 80.053 33.1803C76.5707 29.5058 72.0429 26.9907 67.0831 25.976C66.6031 25.8816 66.1231 25.8032 65.6431 25.7376C57.8703 24.6816 46.9487 29.0304 43.6751 37.0624L37.5951 58.3712C37.4821 58.7677 37.4625 59.185 37.5379 59.5903C37.6133 59.9956 37.7817 60.3779 38.0297 60.7072C38.2778 61.0365 38.5988 61.3038 38.9676 61.4882C39.3364 61.6725 39.7428 61.7688 40.1551 61.7696H41.6527C41.8902 61.7705 42.1177 61.8654 42.2853 62.0337C42.453 62.2019 42.5471 62.4297 42.5471 62.6672V68.04C42.5471 69.4404 43.1034 70.7834 44.0936 71.7735C45.0838 72.7637 46.4268 73.32 47.8271 73.32H49.6015C50.2221 73.3209 50.817 73.5678 51.2558 74.0066C51.6946 74.4454 51.9415 75.0403 51.9423 75.6608V84C51.9423 84.2122 52.0266 84.4157 52.1766 84.5657C52.3266 84.7157 52.5301 84.8 52.7423 84.8C52.9545 84.8 53.158 84.7157 53.308 84.5657C53.458 84.4157 53.5423 84.2122 53.5423 84V75.6544C53.5415 74.6095 53.126 73.6077 52.3871 72.8688C51.6483 72.1299 50.6464 71.7145 49.6015 71.7136H47.8335C47.3502 71.7136 46.8717 71.6184 46.4252 71.4335C45.9788 71.2486 45.5731 70.9775 45.2314 70.6358C44.8896 70.2941 44.6186 69.8884 44.4336 69.4419C44.2487 68.9954 44.1535 68.5169 44.1535 68.0336V62.6672C44.1535 62.0054 43.8908 61.3706 43.4231 60.9023C42.9554 60.434 42.321 60.1705 41.6591 60.1696H40.1615C39.9964 60.1694 39.8336 60.131 39.6858 60.0573C39.538 59.9837 39.4093 59.8768 39.3098 59.745C39.2103 59.6132 39.1427 59.4602 39.1122 59.2979C39.0818 59.1356 39.0893 58.9685 39.1343 58.8096L45.1823 37.584C48.0623 30.52 58.2543 26.3376 65.4223 27.3232C65.8687 27.384 66.3215 27.4592 66.7711 27.5456C70.8586 28.369 74.6447 30.2899 77.7231 33.1021C80.8015 35.9144 83.056 39.5118 84.2446 43.5084C85.4332 47.5049 85.511 51.7497 84.4698 55.7872C83.4285 59.8247 81.3075 63.5024 78.3343 66.4256C77.2151 67.5042 76.3233 68.7961 75.7119 70.2252C75.1004 71.6542 74.7816 73.1913 74.7743 74.7456V84C74.7743 84.2122 74.8586 84.4157 75.0086 84.5657C75.1586 84.7157 75.3621 84.8 75.5743 84.8C75.7865 84.8 75.99 84.7157 76.14 84.5657C76.29 84.4157 76.3743 84.2122 76.3743 84V74.7488C76.3822 73.4068 76.6591 72.08 77.1886 70.8469C77.7182 69.6138 78.4897 68.4994 79.4575 67.5696C82.216 64.8686 84.2965 61.5534 85.5292 57.8949C86.7619 54.2363 87.1118 50.338 86.5503 46.5184Z" fill="#231F20"/>
<path d="M69.4625 50.28C69.5255 50.364 69.6045 50.4348 69.6949 50.4884C69.7853 50.5419 69.8854 50.5771 69.9894 50.5919C70.0934 50.6068 70.1993 50.601 70.301 50.575C70.4028 50.5489 70.4985 50.503 70.5825 50.44C71.1751 50.0903 71.8453 49.8934 72.5329 49.8672C72.603 50.3186 72.5374 50.7807 72.3446 51.1949C72.1517 51.609 71.8403 51.9566 71.4497 52.1936C71.2651 52.2984 71.1297 52.4723 71.0733 52.6769C71.0169 52.8815 71.0441 53.1002 71.1489 53.2848C71.2537 53.4694 71.4276 53.6048 71.6322 53.6612C71.8368 53.7176 72.0555 53.6904 72.2401 53.5856C72.8696 53.2189 73.3823 52.6812 73.7187 52.035C74.0551 51.3888 74.2015 50.6604 74.1409 49.9344C74.4334 49.9803 74.721 50.0531 75.0001 50.152C75.6194 50.3645 76.1709 50.7379 76.5983 51.2338C77.0257 51.7298 77.3134 52.3305 77.4321 52.9744V52.9952V53.0064C77.5482 53.4114 77.6101 53.8299 77.6161 54.2512C77.6381 54.8123 77.5488 55.3723 77.3534 55.8987C77.1579 56.4252 76.8602 56.9078 76.4773 57.3186C76.0945 57.7294 75.6341 58.0604 75.1227 58.2924C74.6113 58.5244 74.059 58.6529 73.4977 58.6704H73.4753L73.2785 58.6448C73.1414 58.6341 73.0038 58.659 72.8791 58.717C72.7543 58.775 72.6467 58.8642 72.5665 58.976C72.4862 59.0877 72.436 59.2183 72.4209 59.3551C72.4057 59.4918 72.4261 59.6302 72.4801 59.7568L74.7393 65.0496C74.7723 65.1145 74.8137 65.1747 74.8625 65.2288C74.1758 65.739 73.4061 66.1266 72.5873 66.3744C72.5777 66.3584 72.5777 66.3392 72.5665 66.3232L69.4241 61.6576C69.322 61.506 69.171 61.394 68.9964 61.3401C68.8217 61.2863 68.6339 61.2938 68.4641 61.3616C67.5866 61.721 66.6056 61.7348 65.7184 61.4002C64.8311 61.0657 64.1035 60.4076 63.6817 59.5584C65.3148 58.5861 67.1501 58.0036 69.0449 57.856C69.2564 57.84 69.4529 57.7407 69.5913 57.5799C69.7296 57.4191 69.7984 57.2099 69.7825 56.9984C69.7767 56.8927 69.7497 56.7894 69.7029 56.6945C69.6561 56.5996 69.5906 56.5151 69.5103 56.4462C69.4301 56.3773 69.3367 56.3253 69.2358 56.2935C69.1349 56.2616 69.0286 56.2505 68.9233 56.2608C66.5362 56.4397 64.2367 57.237 62.2513 58.5744C62.2369 58.5744 62.2193 58.5744 62.2049 58.592C61.6879 58.9049 61.1061 59.0951 60.5042 59.148C59.9022 59.2009 59.2961 59.1152 58.7325 58.8973C58.1689 58.6795 57.6627 58.3353 57.2528 57.8913C56.8429 57.4473 56.5403 56.9152 56.3681 56.336C56.3681 56.3264 56.3553 56.3216 56.3521 56.3136C56.1468 55.695 55.8883 55.0954 55.5793 54.5216C56.0303 54.0739 56.3577 53.517 56.5296 52.9052C56.7015 52.2934 56.712 51.6475 56.5601 51.0304C56.5344 50.9255 56.4877 50.8269 56.4229 50.7405C56.358 50.6541 56.2764 50.5818 56.1828 50.5278C56.0893 50.4738 55.9857 50.4393 55.8785 50.4265C55.7713 50.4136 55.6625 50.4225 55.5589 50.4528C55.4552 50.4831 55.3587 50.534 55.2752 50.6026C55.1918 50.6712 55.1231 50.7559 55.0733 50.8517C55.0234 50.9476 54.9935 51.0525 54.9854 51.1602C54.9772 51.2679 54.9909 51.3761 55.0257 51.4784C55.0889 51.7693 55.0889 52.0704 55.0256 52.3614C54.9624 52.6523 54.8375 52.9263 54.6593 53.1648C54.053 52.364 53.1992 51.7858 52.2305 51.52C52.1288 51.5023 52.0246 51.5048 51.9239 51.5274C51.8231 51.55 51.7279 51.5922 51.6435 51.6516C51.5591 51.7111 51.4872 51.7866 51.432 51.8738C51.3768 51.961 51.3393 52.0583 51.3217 52.16C51.2846 52.3664 51.3291 52.5792 51.4458 52.7535C51.5625 52.9278 51.7423 53.05 51.9473 53.0944C52.0177 53.1088 53.5665 53.5104 54.6865 56.4416C54.3351 56.8818 53.8909 57.239 53.3857 57.4879C52.8804 57.7368 52.3264 57.8713 51.7633 57.8816C50.6387 57.8269 49.5816 57.3287 48.8235 56.4962C48.0654 55.6638 47.6681 54.5648 47.7185 53.44C47.7152 52.5534 47.962 51.6839 48.4305 50.9312C48.5226 50.7837 48.5642 50.6102 48.5489 50.437C48.5336 50.2638 48.4622 50.1002 48.3457 49.9712C47.7595 49.3153 47.4374 48.4653 47.4417 47.5856C47.4025 46.7395 47.6966 45.9118 48.2607 45.28C48.8249 44.6483 49.6142 44.2628 50.4593 44.2064C50.6113 44.2023 50.7591 44.155 50.8852 44.07C51.0113 43.985 51.1105 43.8658 51.1713 43.7264C51.5152 42.8646 52.1039 42.1223 52.8648 41.5912C53.6257 41.0601 54.5254 40.7633 55.4529 40.7376C55.8015 40.7412 56.1485 40.7863 56.4865 40.872C56.6588 40.9139 56.8402 40.8973 57.0021 40.8249C57.164 40.7525 57.2972 40.6284 57.3809 40.472C57.6636 39.8598 58.1138 39.34 58.6794 38.9728C59.245 38.6055 59.9029 38.4058 60.5772 38.3966C61.2515 38.3874 61.9146 38.5691 62.49 38.9208C63.0654 39.2724 63.5296 39.7797 63.8289 40.384C63.1587 41.0892 62.669 41.9461 62.4017 42.8816C61.8466 42.8468 61.2902 42.9239 60.7655 43.1083C60.2408 43.2927 59.7585 43.5807 59.3473 43.9552C59.2151 44.1073 59.1451 44.3037 59.1515 44.5051C59.1578 44.7066 59.2399 44.8982 59.3814 45.0417C59.5229 45.1852 59.7133 45.27 59.9146 45.2792C60.116 45.2884 60.3133 45.2212 60.4673 45.0912C60.9366 44.6783 61.5432 44.4558 62.1681 44.4672C62.1577 45.1716 62.2838 45.8714 62.5393 46.528C62.5797 46.625 62.6389 46.713 62.7134 46.7871C62.7879 46.8612 62.8762 46.9199 62.9734 46.9599C63.0705 46.9999 63.1746 47.0203 63.2797 47.02C63.3847 47.0198 63.4887 46.9988 63.5857 46.9584C63.6827 46.9179 63.7707 46.8588 63.8448 46.7843C63.9189 46.7098 63.9776 46.6215 64.0176 46.5243C64.0576 46.4272 64.078 46.3231 64.0778 46.218C64.0775 46.1129 64.0565 46.009 64.0161 45.912C63.7163 45.0694 63.6827 44.155 63.9199 43.2927C64.1572 42.4303 64.6538 41.6618 65.3425 41.0912C65.353 41.0791 65.3626 41.0662 65.3713 41.0528C65.3809 41.0528 65.3937 41.0432 65.4017 41.0336C65.8227 40.5567 66.3395 40.1742 66.9186 39.9108C67.4976 39.6475 68.1256 39.5094 68.7617 39.5056C69.8988 39.5492 70.9849 39.9889 71.8322 40.7485C72.6795 41.5081 73.2346 42.54 73.4017 43.6656C73.4218 43.7739 73.4641 43.8769 73.5259 43.9682C73.5876 44.0594 73.6676 44.1369 73.7607 44.1958C73.8539 44.2547 73.9582 44.2937 74.0671 44.3104C74.176 44.3271 74.2872 44.3211 74.3937 44.2928C74.706 44.2031 75.0288 44.1547 75.3537 44.1488C76.4763 44.204 77.5315 44.701 78.289 45.5313C79.0464 46.3616 79.4447 47.4579 79.3969 48.5808C79.3978 49.5586 79.0874 50.5113 78.5105 51.3008C77.9125 50.0589 76.8489 49.1028 75.5505 48.64C74.5848 48.2844 73.5526 48.1462 72.5274 48.2353C71.5022 48.3243 70.5092 48.6384 69.6193 49.1552C69.5348 49.2185 69.4637 49.2979 69.41 49.3888C69.3564 49.4797 69.3213 49.5804 69.3067 49.6849C69.2921 49.7895 69.2984 49.8959 69.3251 49.998C69.3519 50.1002 69.3986 50.196 69.4625 50.28Z" fill="#E57E70"/>
</svg>
