<svg width="107" height="100" viewBox="0 0 107 100" fill="none" xmlns="http://www.w3.org/2000/svg">
<ellipse cx="53.5" cy="50" rx="53.5" ry="50" fill="#00FFE6" fill-opacity="0.28"/>
<path d="M76.8615 35.1673L64.8202 24.3301C61.3898 21.2426 59.6746 19.6989 57.5697 18.8912L57.5417 27.2086C57.5417 34.3779 57.5417 37.9625 59.7689 40.1897C61.9963 42.4169 65.5809 42.4169 72.7501 42.4169H83.6395C82.5366 40.2749 80.5623 38.4979 76.8615 35.1673Z" fill="#1C274C"/>
<path fill-rule="evenodd" clip-rule="evenodd" d="M48.4166 78.9166H60.5833C72.054 78.9166 77.7897 78.9166 81.353 75.353C84.9166 71.7897 84.9166 66.054 84.9166 54.5833V53.2538C84.9166 50.599 84.9166 48.6046 84.787 46.9795H72.7499H72.4613C69.1242 46.9798 66.1754 46.9801 63.798 46.6604C61.2214 46.3139 58.6451 45.5185 56.5427 43.4158C54.44 41.3133 53.6446 38.7371 53.2982 36.1604C52.9785 33.7833 52.9788 30.8342 52.9791 27.4972L53.0071 18.8759C53.008 18.6251 53.0296 18.3771 53.0703 18.134C51.8275 18.0833 50.3505 18.0833 48.5072 18.0833C36.9759 18.0833 31.2103 18.0833 27.6468 21.6468C24.0833 25.2104 24.0833 30.9458 24.0833 42.4166V54.5833C24.0833 66.054 24.0833 71.7897 27.6468 75.353C31.2103 78.9166 36.9457 78.9166 48.4166 78.9166ZM51.3661 59.0536C52.257 58.1627 53.7012 58.1627 54.5921 59.0536L57.6337 62.0953C58.5247 62.9862 58.5247 64.4304 57.6337 65.3213L54.5921 68.363C53.7012 69.2539 52.257 69.2539 51.3661 68.363C50.4752 67.4721 50.4752 66.0279 51.3661 65.137L52.7945 63.7083L51.3661 62.2796C50.4752 61.3887 50.4752 59.9446 51.3661 59.0536ZM50.5524 55.3842C50.995 54.2046 50.3973 52.8897 49.2175 52.4475C48.0379 52.0049 46.723 52.6026 46.2806 53.7824L41.7181 65.9491C41.2757 67.1287 41.8734 68.4436 43.0531 68.8858C44.2328 69.3284 45.5477 68.7307 45.9901 67.5508L50.5524 55.3842ZM40.9047 52.9703C41.7955 53.8612 41.7955 55.3054 40.9047 56.1963L39.4761 57.625L40.9047 59.0536C41.7955 59.9446 41.7955 61.3887 40.9047 62.2796C40.0138 63.1705 38.5694 63.1705 37.6785 62.2796L34.6368 59.238C33.746 58.3471 33.746 56.9029 34.6368 56.012L37.6785 52.9703C38.5694 52.0794 40.0138 52.0794 40.9047 52.9703Z" fill="#2D4595"/>
</svg>
